<svg xmlns="http://www.w3.org/2000/svg" width="48" height="48" viewBox="0 0 48 48" role="img" aria-label="Mesh Peer">
  <defs>
    <radialGradient id="mesh-bg" cx="38%" cy="30%" r="85%">
      <stop offset="0%" stop-color="#334155"/>
      <stop offset="100%" stop-color="#1e293b"/>
    </radialGradient>
  </defs>
  <circle cx="24" cy="24" r="22" fill="url(#mesh-bg)" stroke="#0f172a" stroke-width="1"/>
  <circle cx="24" cy="24" r="15.5" fill="none" stroke="#64748b" stroke-width="1.75"/>
  <ellipse cx="24" cy="24" rx="8.5" ry="15.5" fill="none" stroke="#64748b" stroke-width="1.25" opacity="0.85"/>
  <ellipse cx="24" cy="24" rx="15.5" ry="6.2" fill="none" stroke="#64748b" stroke-width="1.25" opacity="0.85"/>
  <line x1="8.5" y1="24" x2="39.5" y2="24" stroke="#64748b" stroke-width="1" opacity="0.7"/>
  <line x1="24" y1="8.5" x2="24" y2="39.5" stroke="#475569" stroke-width="0.6" stroke-dasharray="2 2" opacity="0.8"/>
  <ellipse cx="24" cy="24" rx="15.5" ry="3.4" fill="none" stroke="#475569" stroke-width="0.8" stroke-dasharray="2 2" opacity="0.7"/>
  <circle cx="17.5" cy="15.5" r="1.5" fill="#94a3b8"/>
  <circle cx="31" cy="19" r="1.5" fill="#94a3b8"/>
  <circle cx="22" cy="32.5" r="1.5" fill="#94a3b8"/>
  <circle cx="14.5" cy="27" r="1.1" fill="#64748b"/>
  <circle cx="35" cy="28" r="1.1" fill="#64748b"/>
  <line x1="17.5" y1="15.5" x2="31" y2="19" stroke="#94a3b8" stroke-width="0.9" opacity="0.85"/>
  <line x1="17.5" y1="15.5" x2="14.5" y2="27" stroke="#64748b" stroke-width="0.9" opacity="0.7"/>
  <line x1="31" y1="19" x2="35" y2="28" stroke="#64748b" stroke-width="0.9" opacity="0.7"/>
  <line x1="22" y1="32.5" x2="35" y2="28" stroke="#64748b" stroke-width="0.9" opacity="0.7"/>
</svg>